<svg width="281" height="106" viewBox="0 0 281 106" fill="none" xmlns="http://www.w3.org/2000/svg">
<path d="M11.7113 10.6144C4.41504 10.9227 0.396589 13.8694 0 19.207C0.00477818 19.3839 4.34337 45.8389 4.34337 46.0006C4.7734 47.212 4.67126 47.3282 4.83125 47.4966C5.16094 48.3255 5.42801 48.2094 5.75771 49.0333L10.0581 52.5714C10.7939 53.3599 11.7543 53.5116 12.7386 53.5823H14.1721H15.2042C15.983 53.7087 16.5946 53.0314 17.3591 53.0769C17.6635 53.0819 17.9671 53.1123 18.267 53.1679C18.5662 53.158 18.8639 53.1174 19.1557 53.0466C19.3687 53.8274 19.5111 54.628 19.581 55.4373V96.0348L21.4923 100.584L25.8404 104.051C26.1231 104.343 26.4831 104.537 26.8725 104.607C27.3933 104.754 27.8377 105.113 28.4015 105.113C32.678 105.143 36.9401 105.113 41.2405 105.113C42.728 104.983 44.1749 104.534 45.4931 103.793C45.8027 103.633 46.0944 103.436 46.3627 103.207L46.6159 102.99C46.7593 102.843 46.9265 102.702 47.0937 102.565C47.6493 102.11 48.1542 101.589 48.5989 101.013C48.7088 100.836 48.8234 100.675 48.9477 100.508C49.069 100.346 49.1822 100.177 49.2869 100.003C49.5433 99.5719 49.8412 99.1704 50.1757 98.8046C50.7347 98.1526 51.1982 98.4508 51.6426 98.9663C52.0869 99.4819 52.3306 100.144 52.7559 100.675C53.4188 101.778 54.2771 102.736 55.2836 103.495C56.934 104.688 58.9121 105.268 60.9075 105.143C65.2078 105.032 69.5082 105.102 73.8085 105.102C74.184 105.109 74.5575 105.045 74.9123 104.915C75.4616 104.795 76.0003 104.626 76.5226 104.41C76.8312 104.329 77.1284 104.204 77.4065 104.041C77.5769 103.909 77.7146 103.736 77.8079 103.536L79.7574 102.045C80.2147 102.242 80.7243 102.256 81.1908 102.085C83.1212 103.419 85.0803 104.612 87.5076 104.612C91.9322 104.592 96.3616 104.653 100.786 104.653C102.058 104.653 102.545 104.769 103.414 104.855C103.818 104.844 104.623 104.794 104.623 104.794C105.345 104.728 106.386 104.619 107.258 104.653C111.774 104.653 117.364 104.172 121.664 104.653C124.294 104.362 125.81 103.672 127.491 101.514C128.439 100.281 128.917 98.7951 129.39 97.3216L129.403 97.2832C129.513 96.52 129.723 95.7871 129.881 95.039C129.938 94.756 129.99 94.478 130.053 94.1949C130.104 93.9547 130.236 93.7427 130.425 93.5985C130.526 93.5533 130.636 93.5347 130.745 93.5444C130.854 93.5541 130.959 93.5917 131.051 93.6541C131.182 93.7525 131.301 93.868 131.405 93.9978C131.499 94.1553 131.573 94.3253 131.625 94.5033C131.75 96.1977 132.161 97.8548 132.838 99.396C133.889 102.166 136.059 103.591 138.529 104.632C138.763 104.715 139.005 104.773 139.251 104.804C139.88 104.957 140.518 105.062 141.162 105.118H151.755C153.16 105.118 154.588 105.289 155.912 104.562C156.295 104.435 156.671 104.289 157.04 104.122C157.276 103.998 157.487 103.827 157.661 103.616C159.548 102.661 162.984 97.5966 163.462 95.8326C163.471 95.1869 163.529 94.543 163.634 93.9068C163.632 93.6363 163.716 93.373 163.872 93.1588C163.993 93.056 164.131 92.9772 164.279 92.9263C164.517 92.9003 164.757 92.9571 164.962 93.088C165.246 93.3318 165.473 93.6414 165.626 93.9928C166.228 94.943 166.41 96.0802 166.887 97.0911C167.538 99.6284 168.954 101.872 170.92 103.48C172.784 104.769 174.829 105.158 177.041 105.118C181.537 105.067 186.086 105.118 190.616 105.118C191.008 105.118 191.4 105.118 191.796 105.092C193.402 104.824 194.768 103.97 196.12 103.096C196.39 102.851 196.644 102.588 196.88 102.307C197.968 100.996 198.814 99.4801 199.374 97.8392C200.287 95.3726 201.099 92.8454 202.365 90.5355C202.55 90.1719 202.775 89.8326 203.034 89.5246C203.479 89.1506 203.842 89.3325 204.176 89.6965C204.377 89.9138 204.573 90.1412 204.769 90.3687C205.495 91.1724 206.03 92.1125 206.68 92.9616C208.551 95.3571 210.719 97.4739 213.126 99.2544C213.493 99.4736 213.885 99.6434 214.292 99.7599C214.597 99.7857 214.894 99.8805 215.161 100.038L221.373 103.035C221.612 103.424 221.913 103.379 222.233 103.162C226.906 104.582 231.68 104.824 236.501 104.582C236.835 104.334 237.27 104.42 237.619 104.223C238.092 103.707 238.708 103.894 239.277 103.859C239.472 103.858 239.667 103.845 239.86 103.819C240.322 103.657 240.806 103.573 241.293 103.571C241.484 103.53 241.668 103.464 241.843 103.374C242.189 103.183 242.571 103.079 242.961 103.071C243.156 103.036 243.344 102.969 243.52 102.873C243.881 102.671 244.278 102.552 244.686 102.525C246.363 101.862 247.985 101.054 249.536 100.109C250.311 99.8567 251.135 99.8253 251.925 100.018L254.792 103.05C254.935 103.065 255.077 103.091 255.217 103.126C255.389 103.278 255.561 103.429 255.738 103.571C255.884 103.574 256.03 103.593 256.173 103.627C256.339 103.793 256.522 103.94 256.717 104.066C261.768 105.032 266.861 104.466 271.936 104.572C272.5 104.122 273.288 104.627 273.847 104.122L274.325 104.162C274.502 104.344 274.64 104.309 274.75 104.087C276.427 102.843 278.482 102.095 279.567 100.073L281 96.0297C280.978 90.6383 280.967 85.2469 280.967 79.8554C280.685 79.5774 280.809 79.1023 280.513 78.8445V78.3391C280.56 78.3391 280.608 78.2835 280.646 78.1723C280.685 78.0611 280.637 77.9549 280.493 77.8539L277.149 73.3048L274.76 72.2939L263.77 71.2831C263.751 69.8526 263.827 68.4172 263.713 66.9868C263.429 66.4241 263.284 65.7947 263.292 65.1571C263.302 64.1259 262.819 63.2313 262.58 62.271C261.816 60.4968 261.338 58.5509 259.947 57.1255L255.169 49.5438C255.007 49.3821 254.863 49.1951 254.691 49.0384C254.538 48.8665 254.381 48.6947 254.214 48.5329C254.061 48.3611 253.903 48.1892 253.736 48.0275C253.583 47.8607 253.425 47.6888 253.258 47.522C253.119 47.3401 252.943 47.1884 252.78 47.0166L246.091 41.9621L237.968 39.4349C237.146 39.4349 236.734 38.7004 235.579 38.9295C234.014 38.424 233.835 38.7004 231.756 38.424L225.067 38.9295C224.988 38.8987 224.958 38.8987 224.868 38.8987H224.593C224.502 38.8987 224.383 38.89 224.3 38.9295C224.181 38.9295 224.181 38.8987 224.111 38.9295L217.899 41.4567C217.871 41.4179 217.835 41.3865 217.794 41.3649C217.752 41.3432 217.707 41.332 217.66 41.332C217.614 41.332 217.569 41.3432 217.527 41.3649C217.486 41.3865 217.45 41.4179 217.422 41.4567C216.762 42.6243 215.893 42.7405 214.88 42.0026C213.489 40.9866 211.389 39.5594 209.297 38.9295C201.905 38.7728 195.757 36.3921 188.748 40.9411C188.72 40.9014 188.684 40.8691 188.643 40.8469C188.601 40.8246 188.555 40.8131 188.509 40.8131C188.462 40.8131 188.416 40.8246 188.375 40.8469C188.333 40.8691 188.297 40.9014 188.27 40.9411C188.112 41.1029 187.95 41.2747 187.792 41.4466C187.63 41.6083 187.467 41.7802 187.314 41.952C186.34 43.0498 185.589 44.3467 185.107 45.7631C184.918 46.5625 184.594 47.3193 184.151 47.9972C183.625 48.8918 183.062 48.7553 182.493 48.0477C181.6 46.592 181.098 44.919 180.2 43.4633C180.051 43.2813 180.008 42.9882 179.722 42.9579C175.794 37.7669 170.313 38.2319 164.909 38.4088H163.954C163.747 38.1206 163.603 37.7874 163.533 37.4333C163.488 37.0613 163.469 36.6863 163.476 36.3112V30.994V23.9581C163.466 22.927 163.495 21.8858 163.442 20.8749C163.294 20.3139 163.313 19.7225 162.965 19.2171C161.866 16.6191 160.528 14.2283 158.186 12.6463C155.845 11.0642 155.898 11.5889 154.364 11.1299C149.336 9.62573 140.985 11.1299 140.985 11.1299C140.985 11.1299 138.18 11.6436 136.685 12.6463C134.666 13.9996 132.862 17.7007 132.862 17.7007C132.862 17.7007 131.964 19.7528 131.873 20.9558C131.529 25.616 131.739 30.2762 131.682 34.9415C131.685 35.2287 131.703 35.5155 131.734 35.8007C131.969 36.8319 131.873 37.4333 131.873 38.8637C131.371 39.0305 131.304 39.4703 130.865 39.3591C128.897 38.4088 115.708 38.7323 108.13 38.4493C106.618 38.352 105.108 38.6699 103.747 39.3722C102.386 40.0746 101.219 41.1374 100.361 42.4575C100.117 42.6799 99.8019 42.7911 99.5773 43.0387C99.2956 43.4626 98.8746 43.7601 98.3966 43.8732C97.9186 43.9863 97.4179 43.9068 96.9923 43.6503C94.9663 41.952 92.5772 41.0725 90.3028 39.9302C88.5922 39.3389 86.7549 39.1167 85.0468 38.9193L84.0051 38.4843L83.2595 37.6621C82.6004 35.8912 82.487 34.7314 82.8694 32.8871C83.2595 30.7368 84.9704 30.5441 86.4038 29.9982C86.6044 29.9427 86.8008 29.8717 86.9916 29.7859C87.8229 29.4321 88.6734 29.1339 89.5239 28.8357L89.524 28.8357C90.2121 28.5779 113.281 20.8497 113.974 20.607C116.181 19.7023 118.446 18.9087 119.88 16.6949C119.999 16.4826 120.123 16.2804 120.248 16.0732L120.606 15.4313L120.633 15.3758C121.283 14.0195 121.933 12.6651 121.839 11.0794C121.839 9.34064 122.011 7.58169 120.883 6.06535C120.151 4.58435 119.136 3.28046 117.902 2.23635C116.668 1.19225 115.243 0.430701 113.716 0L72.1411 4.28109L41.9262 7.44773L11.7113 10.6144Z" fill="white"/>
<path d="M82.0051 48.7812C79.5088 48.7797 77.0365 49.2966 74.7285 50.3026V69.0286C74.7039 68.0012 74.8739 66.979 75.2287 66.0223C75.5834 65.0655 76.1156 64.1935 76.794 63.4576C77.4723 62.7218 78.2831 62.137 79.1784 61.7377C80.0738 61.3384 81.0357 61.1327 82.0074 61.1327C82.9791 61.1327 83.941 61.3384 84.8364 61.7377C85.7317 62.137 86.5425 62.7218 87.2208 63.4576C87.8992 64.1935 88.4314 65.0655 88.7861 66.0223C89.1409 66.979 89.3109 68.0012 89.2863 69.0286V94.4379H101.149V69.0286C101.149 63.6573 99.1319 58.5061 95.5407 54.708C91.9496 50.91 87.079 48.7762 82.0004 48.7762" fill="#DA3AB3"/>
<path d="M74.7256 21.8699H62.8673V69.0282C62.8706 65.0163 63.9991 61.0956 66.1099 57.7622C68.2208 54.4289 71.2192 51.8327 74.7256 50.3022V21.8699Z" fill="#00B3E3"/>
<path d="M74.7256 50.3032C71.2173 51.8309 68.2172 54.4264 66.106 57.7604C63.9947 61.0944 62.8675 65.0165 62.8673 69.0292V94.4384H74.7256V50.3032Z" fill="#00299F"/>
<path d="M120.823 48.6915H108.96V65.6837C108.961 61.9509 110.123 58.3222 112.267 55.3568C114.411 52.3915 117.417 50.2542 120.823 49.2744V48.6915Z" fill="#DA3AB3"/>
<path d="M125.025 48.6921C123.605 48.6905 122.192 48.8865 120.821 49.275V65.6843C120.82 64.8042 121.066 63.9435 121.528 63.2113C121.99 62.4791 122.647 61.9084 123.415 61.5714C124.184 61.2345 125.03 61.1464 125.846 61.3184C126.662 61.4905 127.412 61.9148 128 62.5378L136.383 53.6465C134.896 52.0635 133.125 50.8086 131.176 49.9547C129.226 49.1008 127.135 48.6649 125.025 48.6723" fill="#00B3E3"/>
<path d="M120.823 49.2761C117.417 50.2559 114.411 52.3932 112.267 55.3585C110.123 58.3238 108.961 61.9526 108.96 65.6854V94.3746H120.823V49.2761Z" fill="#00299F"/>
<path d="M154.17 48.7817H142.307V94.3742H154.17V48.7817Z" fill="#00B3E3"/>
<path d="M154.17 22.013H142.307V35.2561H154.17V22.013Z" fill="#FF4338"/>
<path d="M207.651 48.6915H194.816L183.364 77.9636L189.782 94.3729H176.947H189.782L207.651 48.6915Z" fill="#FF6B00"/>
<path d="M171.91 48.6915H159.076L176.945 94.3729L183.362 77.9636L171.91 48.6915Z" fill="#00B3E3"/>
<path d="M183.364 77.963L176.947 94.3723H189.782L183.364 77.963Z" fill="#004B00"/>
<path d="M230.66 48.7224C224.937 48.7341 219.453 51.1468 215.41 55.4308C211.367 59.7149 209.097 65.5203 209.097 71.5729C209.097 84.3714 218.867 94.3988 231.342 94.3988C237.778 94.3988 242.939 92.2303 248.595 87.1376L240.907 77.5844C237.404 80.7359 234.668 81.6102 231.099 81.6102C229.338 81.675 227.598 81.1887 226.097 80.2123L225.71 80.3851L213.692 85.6359C211.449 82.6511 209.965 79.1091 209.382 75.3468L221.558 70.0268C221.735 68.3081 222.335 66.6686 223.299 65.2722C224.263 63.8757 225.556 62.7713 227.05 62.0691C228.111 61.5739 229.258 61.3198 230.417 61.3233C232.497 61.3272 234.517 62.0584 236.162 63.4028L236.349 63.5757L248.277 58.3348C249.097 59.5527 249.801 60.8532 250.379 62.2173C248.679 58.1915 245.911 54.774 242.411 52.3794C238.911 49.9848 234.829 48.7161 230.66 48.7273V48.7224ZM250.374 62.2371L250.398 62.2865L250.374 62.2371ZM252.878 68.4807L240.935 73.7167L252.896 68.4906" fill="#FF6B00"/>
<path d="M250.409 62.2862L250.437 62.3455L250.409 62.2862ZM250.447 62.3652L250.479 62.4541L250.447 62.3652ZM250.489 62.4739L250.521 62.548L250.489 62.4739ZM250.526 62.5678L250.563 62.6567L252.899 68.4854L250.563 62.6567L250.526 62.5678V62.5678ZM236.361 63.5557L229.028 66.7565L221.999 69.829L221.565 70.0167C220.976 75.3514 223.591 78.2806 225.74 79.9354C225.861 80.0292 225.983 80.1181 226.109 80.2021L239.308 74.4376L240.933 73.7263C240.933 73.6967 239.532 66.6133 236.361 63.5507" fill="#DA3AB3"/>
<path d="M248.282 58.3335L236.358 63.5398C239.515 66.5974 240.926 73.6858 240.93 73.7154L252.891 68.4893L250.556 62.6606L250.519 62.5717L250.486 62.4926L250.449 62.4037V62.3444L250.425 62.2901C249.849 60.9262 249.146 59.6257 248.328 58.4076L248.282 58.3335ZM221.613 70.0749L209.437 75.3949C210.019 79.1579 211.503 82.7004 213.748 85.684L225.765 80.4332L226.153 80.2604C226.028 80.178 225.907 80.0891 225.789 79.9936C223.64 78.3389 221.025 75.4146 221.613 70.0749" fill="#DA1800"/>
<path d="M270.686 81.5458H258.823V94.374H270.686V81.5458Z" fill="#00B3E3"/>
<path d="M43.1197 34.2431H31.2567V94.2592H43.1197V34.2431Z" fill="#FF6B00"/>
<path d="M113.563 10.8149L11.6156 21.5239L15.9545 43.7225L113.563 10.8149Z" fill="#22B573"/>
</svg>
